<svg width="27" height="27" viewBox="0 0 27 27" fill="none" xmlns="http://www.w3.org/2000/svg">
<path d="M21.375 24.75H5.625C3.76104 24.75 2.25 23.239 2.25 21.375V3.375C2.25 2.75368 2.75368 2.25 3.375 2.25H19.125C19.7463 2.25 20.25 2.75368 20.25 3.375V16.875H24.75V21.375C24.75 23.239 23.239 24.75 21.375 24.75ZM20.25 19.125V21.375C20.25 21.9963 20.7537 22.5 21.375 22.5C21.9963 22.5 22.5 21.9963 22.5 21.375V19.125H20.25ZM18 22.5V4.5H4.5V21.375C4.5 21.9963 5.00368 22.5 5.625 22.5H18ZM6.75 7.875H15.75V10.125H6.75V7.875ZM6.75 12.375H15.75V14.625H6.75V12.375ZM6.75 16.875H12.375V19.125H6.75V16.875Z" fill="#6FAB49"/>
</svg>
