<svg width="28" height="28" viewBox="0 0 28 28" fill="none" xmlns="http://www.w3.org/2000/svg">
<path d="M13.9998 8.16668C19.1545 8.16668 23.3332 12.3453 23.3332 17.5C23.3332 22.6547 19.1545 26.8333 13.9998 26.8333C8.84518 26.8333 4.6665 22.6547 4.6665 17.5C4.6665 12.3453 8.84518 8.16668 13.9998 8.16668ZM13.9998 12.25L12.4569 15.3763L9.0068 15.8776L11.5033 18.3112L10.914 21.7474L13.9998 20.125L17.0857 21.7474L16.4964 18.3112L18.9929 15.8776L15.5428 15.3763L13.9998 12.25ZM15.1665 2.33218L20.9998 2.33335V5.83335L19.4092 7.1605C18.1188 6.48401 16.6861 6.04201 15.1678 5.89109L15.1665 2.33218ZM12.8332 2.33218L12.8328 5.891C11.3146 6.04176 9.88204 6.4836 8.59165 7.1599L6.99984 5.83335V2.33335L12.8332 2.33218Z" fill="#6FAB49"/>
</svg>
