<svg width="24" height="24" viewBox="0 0 24 24" fill="none" xmlns="http://www.w3.org/2000/svg">
<g clip-path="url(#clip0_158_1740)">
<path d="M23.705 18.549C22.809 17.224 20.746 15 17 15C13.254 15 11.19 17.224 10.295 18.549C9.904 19.126 9.903 19.872 10.295 20.451C11.191 21.776 13.255 24 17.001 24C20.747 24 22.81 21.776 23.706 20.451C24.097 19.873 24.096 19.127 23.705 18.549ZM17 21.5C15.895 21.5 15 20.605 15 19.5C15 18.395 15.895 17.5 17 17.5C18.105 17.5 19 18.395 19 19.5C19 20.605 18.105 21.5 17 21.5ZM8.638 21.572C7.786 20.31 7.787 18.684 8.639 17.426C9.755 15.775 12.328 12.999 17 12.999C20.311 12.999 22.568 14.394 24 15.795V5C24 2.239 21.761 0 19 0H5C2.239 0 0 2.239 0 5V18C0 20.761 2.239 23 5 23H9.797C9.308 22.494 8.925 21.996 8.638 21.572ZM11 5H18C18.552 5 19 5.448 19 6C19 6.552 18.552 7 18 7H11C10.448 7 10 6.552 10 6C10 5.448 10.448 5 11 5ZM11 10H18C18.552 10 19 10.448 19 11C19 11.552 18.552 12 18 12H11C10.448 12 10 11.552 10 11C10 10.448 10.448 10 11 10ZM6.5 4.5C7.328 4.5 8 5.172 8 6C8 6.828 7.328 7.5 6.5 7.5C5.672 7.5 5 6.828 5 6C5 5.172 5.672 4.5 6.5 4.5ZM6.5 9.5C7.328 9.5 8 10.172 8 11C8 11.828 7.328 12.5 6.5 12.5C5.672 12.5 5 11.828 5 11C5 10.172 5.672 9.5 6.5 9.5ZM6.5 17.5C5.672 17.5 5 16.828 5 16C5 15.172 5.672 14.5 6.5 14.5C7.328 14.5 8 15.172 8 16C8 16.828 7.328 17.5 6.5 17.5Z" fill="#6FAB49"/>
</g>
<defs>
<clipPath id="clip0_158_1740">
<rect width="24" height="24" fill="white"/>
</clipPath>
</defs>
</svg>
