<svg width="24" height="24" viewBox="0 0 24 24" fill="none" xmlns="http://www.w3.org/2000/svg">
<g clip-path="url(#clip0_25_3560)">
<path d="M24 3.538V20H23.407C21.352 20 19.506 18.742 18.754 16.829L16.462 11H11C10.004 11 9.07999 10.319 8.91999 9.336C8.71599 8.083 9.67799 7 10.893 7H20.817C19.931 5.924 19.065 4.889 19.033 4.855C18.172 3.933 18.22 2.482 19.142 1.62C20.065 0.757 21.514 0.801 22.372 1.718L24 3.538Z" fill="#EB9131"/>
<path d="M0 17V19C0 21.757 2.243 24 5 24H11C13.757 24 16 21.757 16 19V17H0ZM9 21.5H7C6.448 21.5 6 21.052 6 20.5C6 19.948 6.448 19.5 7 19.5H9C9.552 19.5 10 19.948 10 20.5C10 21.052 9.552 21.5 9 21.5Z" fill="#EB9131"/>
<path d="M7 9C7 6.791 8.791 5 11 5H16C16 2.239 13.761 0 11 0H5C2.239 0 0 2.239 0 5V15H16V13H11C8.791 13 7 11.209 7 9Z" fill="#EB9131"/>
</g>
<defs>
<clipPath id="clip0_25_3560">
<rect width="24" height="24" fill="white"/>
</clipPath>
</defs>
</svg>
