<svg width="28" height="27" viewBox="0 0 28 27" fill="none" xmlns="http://www.w3.org/2000/svg">
<path d="M10.625 21.375H14V14.5593L9.5 10.6358L5 14.5593V21.375H8.375V16.875H10.625V21.375ZM24.125 23.625H3.875C3.25368 23.625 2.75 23.1213 2.75 22.5V14.0477C2.75 13.7225 2.89064 13.4133 3.13567 13.1996L7.25 9.61239V4.5C7.25 3.87868 7.75368 3.375 8.375 3.375H24.125C24.7463 3.375 25.25 3.87868 25.25 4.5V22.5C25.25 23.1213 24.7463 23.625 24.125 23.625ZM18.5 12.375V14.625H20.75V12.375H18.5ZM18.5 16.875V19.125H20.75V16.875H18.5ZM18.5 7.875V10.125H20.75V7.875H18.5ZM14 7.875V10.125H16.25V7.875H14Z" fill="#6FAB49"/>
</svg>
