<svg width="24" height="24" viewBox="0 0 24 24" fill="none" xmlns="http://www.w3.org/2000/svg">
<g clip-path="url(#clip0_7_200)">
<path d="M2.31001 17.192L7.81001 22.692C7.04098 23.0052 6.19665 23.0846 5.38273 22.9201C4.56881 22.7557 3.82149 22.3548 3.23434 21.7677C2.64719 21.1805 2.2463 20.4332 2.08188 19.6193C1.91747 18.8054 1.99682 17.9611 2.31001 17.192ZM7.32701 1.98002C7.58692 1.92698 7.81512 1.77286 7.9614 1.55156C8.10768 1.33027 8.16006 1.05993 8.10701 0.800021C8.05397 0.540109 7.89985 0.311913 7.67855 0.165635C7.45726 0.0193565 7.18692 -0.0330225 6.92701 0.0200209C4.24536 0.489816 1.84403 1.96517 0.213011 4.14502C0.0649893 4.3586 0.00591946 4.62141 0.0483133 4.87779C0.0907071 5.13417 0.231235 5.36397 0.440131 5.51853C0.649027 5.67309 0.909885 5.74027 1.16745 5.70582C1.42502 5.67138 1.65906 5.53804 1.82001 5.33402C3.15416 3.54735 5.12735 2.3456 7.32701 1.98002ZM23.2 16.023C22.941 15.9662 22.6701 16.0145 22.4467 16.1574C22.2234 16.3003 22.066 16.5261 22.009 16.785C21.6291 18.9428 20.4434 20.8756 18.692 22.192C18.4777 22.3485 18.3344 22.5837 18.2935 22.8459C18.2526 23.108 18.3175 23.3757 18.474 23.59C18.6305 23.8043 18.8657 23.9477 19.1279 23.9886C19.39 24.0294 19.6577 23.9645 19.872 23.808C22.0122 22.1994 23.4715 19.847 23.962 17.215C23.9903 17.0867 23.993 16.9541 23.97 16.8247C23.947 16.6954 23.8988 16.5718 23.828 16.4611C23.7572 16.3504 23.6654 16.2548 23.5576 16.1796C23.4499 16.1044 23.3283 16.0512 23.2 16.023ZM20.167 5.24702L21.707 3.70702C21.8025 3.61477 21.8787 3.50443 21.9311 3.38243C21.9835 3.26042 22.0111 3.1292 22.0123 2.99642C22.0134 2.86364 21.9881 2.73196 21.9378 2.60907C21.8876 2.48617 21.8133 2.37452 21.7194 2.28063C21.6255 2.18673 21.5139 2.11248 21.391 2.0622C21.2681 2.01192 21.1364 1.98662 21.0036 1.98777C20.8708 1.98892 20.7396 2.01651 20.6176 2.06892C20.4956 2.12133 20.3853 2.19751 20.293 2.29302L18.751 3.83502C17.3704 2.73793 15.6813 2.09992 13.9202 2.01027C12.159 1.92062 10.4139 2.3838 8.92901 3.33502L3.42901 6.73502C2.78406 7.13361 2.23765 7.67294 1.83068 8.31264C1.42372 8.95233 1.16675 9.67581 1.07902 10.4289C0.991295 11.182 1.07508 11.9451 1.32411 12.6613C1.57314 13.3774 1.98095 14.0279 2.51701 14.564L9.47601 21.523C10.0132 22.0603 10.6651 22.4689 11.3829 22.7179C12.1007 22.967 12.8656 23.0501 13.6201 22.9609C14.3746 22.8718 15.099 22.6128 15.739 22.2033C16.379 21.7939 16.9178 21.2447 17.315 20.597L20.915 14.721C21.7425 13.2453 22.1131 11.5571 21.98 9.87041C21.8468 8.18376 21.2158 6.57463 20.167 5.24702Z" fill="#6FAB49"/>
</g>
<defs>
<clipPath id="clip0_7_200">
<rect width="24" height="24" fill="white"/>
</clipPath>
</defs>
</svg>
