<svg width="19" height="19" viewBox="0 0 19 19" fill="none" xmlns="http://www.w3.org/2000/svg">
<g clip-path="url(#clip0_158_931)">
<path d="M19 9.5C19 7.62108 18.4428 5.78435 17.399 4.22208C16.3551 2.65981 14.8714 1.44218 13.1355 0.723144C11.3996 0.00411158 9.48946 -0.18402 7.64664 0.18254C5.80382 0.549098 4.11109 1.45388 2.78249 2.78248C1.45389 4.11108 0.5491 5.80382 0.182542 7.64664C-0.184018 9.48946 0.00411291 11.3996 0.723145 13.1355C1.44218 14.8714 2.65982 16.3551 4.22208 17.399C5.78435 18.4428 7.62108 19 9.5 19C12.0187 18.9973 14.4335 17.9955 16.2145 16.2145C17.9955 14.4335 18.9973 12.0187 19 9.5ZM1.58333 9.5C1.58333 7.93423 2.04764 6.40362 2.91753 5.10173C3.78743 3.79985 5.02384 2.78515 6.47042 2.18595C7.91701 1.58676 9.50878 1.42998 11.0445 1.73545C12.5801 2.04091 13.9908 2.7949 15.0979 3.90207C16.2051 5.00924 16.9591 6.41985 17.2646 7.95553C17.57 9.49122 17.4132 11.083 16.814 12.5296C16.2149 13.9762 15.2002 15.2126 13.8983 16.0825C12.5964 16.9524 11.0658 17.4167 9.5 17.4167C7.40108 17.4144 5.38878 16.5795 3.90462 15.0954C2.42045 13.6112 1.58564 11.5989 1.58333 9.5Z" fill="white"/>
<path d="M6.33331 9.50013C6.33272 8.92063 6.54451 8.36099 6.92864 7.92709C7.15902 7.66822 7.38306 7.4228 7.54377 7.26209L9.77944 4.98763C9.85102 4.90857 9.93784 4.84479 10.0347 4.80011C10.1315 4.75544 10.2364 4.7308 10.343 4.72766C10.4496 4.72453 10.5558 4.74296 10.6551 4.78187C10.7544 4.82078 10.8448 4.87935 10.9209 4.95407C10.997 5.02879 11.0572 5.11811 11.098 5.21669C11.1387 5.31526 11.1591 5.42104 11.1579 5.52769C11.1567 5.63434 11.134 5.73965 11.0911 5.83731C11.0483 5.93496 10.9861 6.02294 10.9084 6.09597L8.66873 8.37597C8.52069 8.5248 8.3196 8.74647 8.11456 8.97684C7.98699 9.12147 7.9166 9.30768 7.9166 9.50053C7.9166 9.69338 7.98699 9.87959 8.11456 10.0242C8.31881 10.2538 8.51989 10.4755 8.66319 10.6196L10.9084 12.9043C10.9861 12.9773 11.0483 13.0653 11.0911 13.163C11.134 13.2606 11.1567 13.3659 11.1579 13.4726C11.1591 13.5792 11.1387 13.685 11.098 13.7836C11.0572 13.8822 10.997 13.9715 10.9209 14.0462C10.8448 14.1209 10.7544 14.1795 10.6551 14.2184C10.5558 14.2573 10.4496 14.2757 10.343 14.2726C10.2364 14.2695 10.1315 14.2448 10.0347 14.2002C9.93784 14.1555 9.85102 14.0917 9.77943 14.0126L7.53981 11.7334C7.38148 11.5751 7.15981 11.3321 6.93102 11.074C6.54565 10.6403 6.33296 10.0803 6.33331 9.50013Z" fill="white"/>
</g>
<defs>
<clipPath id="clip0_158_931">
<rect width="19" height="19" fill="white" transform="translate(19 19) rotate(-180)"/>
</clipPath>
</defs>
</svg>
