<svg width="22" height="21" viewBox="0 0 22 21" fill="none" xmlns="http://www.w3.org/2000/svg">
<g clip-path="url(#clip0_42_1034)">
<path fill-rule="evenodd" clip-rule="evenodd" d="M9.3634 17.9826C11.6519 20.1595 14.8346 20.7929 18.0169 19.391L20.745 20.5002L20.3179 17.8471C22.856 15.5529 22.2669 12.365 20.2409 10.1215C20.0824 10.989 19.7906 11.8125 19.3841 12.5765C18.7753 13.7211 17.9034 14.7383 16.8357 15.5756C15.8014 16.3871 14.594 17.024 13.2779 17.4353C12.0679 17.8133 10.7466 18.0088 9.3634 17.9826ZM5.67325 10.555C5.34239 10.555 5.07383 10.2774 5.07383 9.93539C5.07383 9.59337 5.34239 9.31576 5.67325 9.31576H11.0065C11.3374 9.31576 11.6055 9.59337 11.6055 9.93539C11.6055 10.2774 11.3374 10.555 11.0065 10.555H5.67325ZM5.67325 7.38314C5.34239 7.38314 5.07383 7.10553 5.07383 6.76351C5.07383 6.42105 5.34239 6.14388 5.67325 6.14388H13.2938C13.6246 6.14388 13.8927 6.42105 13.8927 6.76351C13.8927 7.10553 13.6246 7.38314 13.2938 7.38314H5.67325ZM9.71661 0.505488L9.72563 0.505933C12.3179 0.586773 14.6434 1.53953 16.308 3.01509C18.0083 4.52175 19.0279 6.57296 18.9643 8.81206L18.9639 8.82228C18.8969 11.0627 17.7586 13.0495 15.9724 14.4505C14.2219 15.8239 11.8423 16.634 9.2504 16.5554C8.58653 16.535 7.94114 16.4648 7.32583 16.3413C6.79086 16.2338 6.27309 16.0859 5.77895 15.8949L1.21051 17.3372L2.57907 13.9725C1.79704 13.2623 1.16368 12.4357 0.721099 11.5291C0.227388 10.5168 -0.0308543 9.40504 0.00309102 8.24351C0.0684035 6.00086 1.20708 4.01227 2.99415 2.61045C4.74555 1.23705 7.12473 0.426869 9.71661 0.505488ZM9.69297 1.73586L9.68395 1.73542C7.36879 1.66524 5.25645 2.37903 3.71301 3.58942C2.2061 4.77137 1.24704 6.42771 1.1929 8.27727C1.16497 9.22737 1.37809 10.1402 1.78501 10.9743C2.21512 11.8547 2.86008 12.6489 3.66661 13.3098L4.02153 13.6003L3.29149 15.3943L5.8318 14.5921L6.02516 14.6725C6.50426 14.8715 7.01516 15.0234 7.54969 15.1305C8.11129 15.2438 8.69223 15.3073 9.28305 15.3255C11.5982 15.3957 13.7106 14.6819 15.254 13.4715C16.7609 12.2895 17.72 10.6332 17.7741 8.78363V8.77386C17.8252 6.92741 16.9654 5.21999 15.5333 3.95053C14.0646 2.64909 12.0017 1.80782 9.69297 1.73586Z" fill="white"/>
</g>
<defs>
<clipPath id="clip0_42_1034">
<rect width="22" height="20" fill="white" transform="translate(0 0.5)"/>
</clipPath>
</defs>
</svg>
