<svg width="25" height="25" viewBox="0 0 25 25" fill="none" xmlns="http://www.w3.org/2000/svg">
<path d="M12.5 2.5C18.0228 2.5 22.5 6.97715 22.5 12.5C22.5 18.0228 18.0228 22.5 12.5 22.5C6.97715 22.5 2.5 18.0228 2.5 12.5H4.5C4.5 16.9183 8.08172 20.5 12.5 20.5C16.9183 20.5 20.5 16.9183 20.5 12.5C20.5 8.08172 16.9183 4.5 12.5 4.5C9.75022 4.5 7.32447 5.88734 5.88451 8.00024L8.5 8V10H2.5V4H4.5L4.49989 6.49918C6.32434 4.07075 9.22873 2.5 12.5 2.5ZM13.5 7.5L13.4998 12.085L16.7426 15.3284L15.3284 16.7426L11.4998 12.913L11.5 7.5H13.5Z" fill="#6FAB49"/>
</svg>
