<svg width="20" height="20" viewBox="0 0 20 20" fill="none" xmlns="http://www.w3.org/2000/svg">
<path d="M10 17.4163L14.1248 13.2914C16.4028 11.0134 16.4028 7.31995 14.1248 5.0419C11.8468 2.76384 8.15327 2.76384 5.87521 5.0419C3.59715 7.31995 3.59715 11.0134 5.87521 13.2914L10 17.4163ZM10 19.7733L4.6967 14.47C1.76777 11.541 1.76777 6.79232 4.6967 3.86339C7.62563 0.934454 12.3743 0.934454 15.3033 3.86339C18.2323 6.79232 18.2323 11.541 15.3033 14.47L10 19.7733ZM10 10.8334C10.9205 10.8334 11.6667 10.0872 11.6667 9.16669C11.6667 8.24621 10.9205 7.50002 10 7.50002C9.0795 7.50002 8.33333 8.24621 8.33333 9.16669C8.33333 10.0872 9.0795 10.8334 10 10.8334ZM10 12.5C8.15905 12.5 6.66667 11.0076 6.66667 9.16669C6.66667 7.32574 8.15905 5.83335 10 5.83335C11.8409 5.83335 13.3333 7.32574 13.3333 9.16669C13.3333 11.0076 11.8409 12.5 10 12.5Z" fill="#6FAB49"/>
</svg>
