<svg width="19" height="19" viewBox="0 0 19 19" fill="none" xmlns="http://www.w3.org/2000/svg">
<path d="M9.50004 17.4166C5.12778 17.4166 1.58337 13.8722 1.58337 9.49998C1.58337 5.12772 5.12778 1.58331 9.50004 1.58331C13.8723 1.58331 17.4167 5.12772 17.4167 9.49998C17.4167 13.8722 13.8723 17.4166 9.50004 17.4166ZM8.70837 11.875V13.4583H10.2917V11.875H8.70837ZM10.2917 10.5728C11.4362 10.2321 12.2709 9.17183 12.2709 7.91665C12.2709 6.38635 11.0303 5.14581 9.50004 5.14581C8.15579 5.14581 7.03508 6.10309 6.7825 7.37314L8.33534 7.68371C8.44364 7.13941 8.92394 6.72915 9.50004 6.72915C10.1559 6.72915 10.6875 7.26081 10.6875 7.91665C10.6875 8.57246 10.1559 9.10415 9.50004 9.10415C9.0628 9.10415 8.70837 9.45858 8.70837 9.89581V11.0833H10.2917V10.5728Z" fill="white"/>
</svg>
