<svg width="25" height="24" viewBox="0 0 25 24" fill="none" xmlns="http://www.w3.org/2000/svg">
<g clip-path="url(#clip0_7_55)">
<path d="M19.947 6.912C18.216 5.317 15.974 4.269 13.498 4.045L15.5 0H23.367L19.947 6.912ZM11.496 4.046L9.49995 0H1.52795L4.97395 6.985C6.71395 5.35 8.98395 4.275 11.496 4.046ZM21.5 15C21.5 19.963 17.462 24 12.5 24C7.53795 24 3.49995 19.963 3.49995 15C3.49995 10.037 7.53795 6 12.5 6C17.462 6 21.5 10.037 21.5 15ZM17.5 13.5H13.918L12.922 9.972H12.1L11.103 13.5H7.50095V14.247L10.203 15.825L9.12895 19L9.73995 19.46L12.513 17.315L15.275 19.451L15.91 19.008L14.756 15.873L17.5 14.243V13.501V13.5Z" fill="#6FAB49"/>
</g>
<defs>
<clipPath id="clip0_7_55">
<rect width="24" height="24" fill="white" transform="translate(0.5)"/>
</clipPath>
</defs>
</svg>
