<svg width="24" height="24" viewBox="0 0 24 24" fill="none" xmlns="http://www.w3.org/2000/svg">
<g clip-path="url(#clip0_7_877)">
<path d="M19 12.5C19 13.328 18.328 14 17.5 14C16.672 14 16 13.328 16 12.5C16 11.672 16.672 11 17.5 11C18.328 11 19 11.672 19 12.5ZM22.5 9C23.328 9 24 8.328 24 7.5C24 6.672 23.328 6 22.5 6C21.672 6 21 6.672 21 7.5C21 8.328 21.672 9 22.5 9ZM17.5 16C16.672 16 16 16.672 16 17.5C16 18.328 16.672 19 17.5 19C18.328 19 19 18.328 19 17.5C19 16.672 18.328 16 17.5 16ZM22.5 11C21.672 11 21 11.672 21 12.5C21 13.328 21.672 14 22.5 14C23.328 14 24 13.328 24 12.5C24 11.672 23.328 11 22.5 11ZM22.5 16C21.672 16 21 16.672 21 17.5C21 18.328 21.672 19 22.5 19C23.328 19 24 18.328 24 17.5C24 16.672 23.328 16 22.5 16ZM22.5 21C21.672 21 21 21.672 21 22.5C21 23.328 21.672 24 22.5 24C23.328 24 24 23.328 24 22.5C24 21.672 23.328 21 22.5 21ZM17.5 21C16.672 21 16 21.672 16 22.5C16 23.328 16.672 24 17.5 24C18.328 24 19 23.328 19 22.5C19 21.672 18.328 21 17.5 21ZM12.5 16C11.672 16 11 16.672 11 17.5C11 18.328 11.672 19 12.5 19C13.328 19 14 18.328 14 17.5C14 16.672 13.328 16 12.5 16ZM12.5 21C11.672 21 11 21.672 11 22.5C11 23.328 11.672 24 12.5 24C13.328 24 14 23.328 14 22.5C14 21.672 13.328 21 12.5 21ZM19.906 2.834C20.182 3.992 19.847 5.185 19.007 6.024L12.025 13.006C11.379 13.652 10.524 14 9.63605 14C9.37005 14 9.10105 13.969 8.83405 13.905C7.68905 13.632 6.78905 12.803 6.42505 11.691C6.23705 11.118 6.11905 10.519 6.07405 9.915C5.87305 7.204 6.07905 5.084 6.66605 3.55C6.14305 3.277 5.37805 2.999 4.41505 2.999C3.63405 2.999 2.99805 3.635 2.99805 4.416V22.499C2.99805 23.327 2.32705 23.999 1.49805 23.999C0.669047 23.999 -0.00195312 23.327 -0.00195312 22.499V4.417C4.68751e-05 1.981 1.98105 -2.24203e-06 4.41705 -2.24203e-06C6.26105 -2.24203e-06 7.65805 0.623998 8.53205 1.165C10.073 0.196998 12.54 -0.174002 15.913 0.0749978C16.512 0.117998 17.11 0.234998 17.69 0.423998C18.806 0.788998 19.632 1.69 19.906 2.834ZM16.988 3.531C16.967 3.442 16.91 3.325 16.76 3.276C16.414 3.164 16.054 3.092 15.697 3.067H15.694C15.068 3.02 14.494 3 13.973 3C11.639 3 10.339 3.422 9.88105 3.88C9.32105 4.441 8.81305 6.262 9.06805 9.694C9.09505 10.057 9.16605 10.416 9.27805 10.76C9.32705 10.909 9.44405 10.966 9.53305 10.988C9.61505 11.01 9.77105 11.02 9.90505 10.885L16.888 3.903C17.022 3.769 17.01 3.613 16.99 3.531H16.988Z" fill="#959595"/>
</g>
<defs>
<clipPath id="clip0_7_877">
<rect width="24" height="24" fill="white"/>
</clipPath>
</defs>
</svg>
