<svg width="24" height="24" viewBox="0 0 24 24" fill="none" xmlns="http://www.w3.org/2000/svg">
<g clip-path="url(#clip0_7_873)">
<path d="M12 0C5.383 0 0 5.383 0 12C0 18.617 5.383 24 12 24C18.617 24 24 18.617 24 12C24 5.383 18.617 0 12 0ZM22 12C22 14.398 21.15 16.6 19.738 18.324L17.413 15.999H17.999C18.551 15.999 18.999 15.552 18.999 14.999V12.999C18.999 12.446 18.551 11.999 17.999 11.999H13.413L5.675 4.261C7.4 2.849 9.602 1.999 11.999 1.999C17.513 1.999 21.999 6.485 21.999 11.999L22 12ZM2 12C2 9.602 2.85 7.4 4.262 5.676L18.324 19.738C16.599 21.15 14.397 22 12 22C6.486 22 2 17.514 2 12ZM11 5C11 4.447 11.448 4 12 4C12.552 4 13 4.447 13 5C13 5.1 13.262 5.463 14.062 5.691L16.485 6.383C18.036 6.827 18.999 7.829 18.999 8.999C18.999 9.552 18.551 9.999 17.999 9.999C17.447 9.999 16.999 9.552 16.999 8.999C16.999 8.899 16.737 8.535 15.935 8.307L13.513 7.615C11.963 7.173 10.999 6.171 10.999 5H11ZM7.758 12L11.758 16H6C5.448 16 5 15.552 5 15V13C5 12.448 5.448 12 6 12H7.758Z" fill="#959595"/>
</g>
<defs>
<clipPath id="clip0_7_873">
<rect width="24" height="24" fill="white"/>
</clipPath>
</defs>
</svg>
